<svg width="20" height="20" viewBox="0 0 20 20" fill="none" xmlns="http://www.w3.org/2000/svg">
<g clip-path="url(#clip0_11_11)">
<path d="M13.75 10C13.75 10.8672 13.7031 11.7031 13.6211 12.5H6.37891C6.29297 11.7031 6.25 10.8672 6.25 10C6.25 9.13281 6.29688 8.29688 6.37891 7.5H13.6211C13.707 8.29688 13.75 9.13281 13.75 10ZM14.875 7.5H19.6836C19.8906 8.30078 20 9.13672 20 10C20 10.8633 19.8906 11.6992 19.6836 12.5H14.875C14.957 11.6953 15 10.8594 15 10C15 9.14062 14.957 8.30469 14.875 7.5ZM19.2734 6.25H14.7148C14.3242 3.75391 13.5508 1.66406 12.5547 0.328125C15.6133 1.13672 18.1016 3.35547 19.2695 6.25H19.2734ZM13.4492 6.25H6.55078C6.78906 4.82812 7.15625 3.57031 7.60547 2.55078C8.01562 1.62891 8.47266 0.960938 8.91406 0.539062C9.35156 0.125 9.71484 0 10 0C10.2852 0 10.6484 0.125 11.0859 0.539062C11.5273 0.960938 11.9844 1.62891 12.3945 2.55078C12.8477 3.56641 13.2109 4.82422 13.4492 6.25ZM5.28516 6.25H0.726562C1.89844 3.35547 4.38281 1.13672 7.44531 0.328125C6.44922 1.66406 5.67578 3.75391 5.28516 6.25ZM0.316406 7.5H5.125C5.04297 8.30469 5 9.14062 5 10C5 10.8594 5.04297 11.6953 5.125 12.5H0.316406C0.109375 11.6992 0 10.8633 0 10C0 9.13672 0.109375 8.30078 0.316406 7.5ZM7.60547 17.4453C7.15234 16.4297 6.78906 15.1719 6.55078 13.75H13.4492C13.2109 15.1719 12.8438 16.4297 12.3945 17.4453C11.9844 18.3672 11.5273 19.0352 11.0859 19.457C10.6484 19.875 10.2852 20 10 20C9.71484 20 9.35156 19.875 8.91406 19.4609C8.47266 19.0391 8.01562 18.3711 7.60547 17.4492V17.4453ZM5.28516 13.75C5.67578 16.2461 6.44922 18.3359 7.44531 19.6719C4.38281 18.8633 1.89844 16.6445 0.726562 13.75H5.28516ZM19.2734 13.75C18.1016 16.6445 15.6172 18.8633 12.5586 19.6719C13.5547 18.3359 14.3242 16.2461 14.7188 13.75H19.2734Z" fill="url(#paint0_linear_11_11)"/>
</g>
<defs>
<linearGradient id="paint0_linear_11_11" x1="-10.5" y1="-9" x2="21" y2="22" gradientUnits="userSpaceOnUse">
<stop stop-color="#E3E9FF"/>
<stop offset="1" stop-color="#36373C"/>
</linearGradient>
<clipPath id="clip0_11_11">
<rect width="20" height="20" fill="white"/>
</clipPath>
</defs>
</svg>
