<?xml version="1.0" encoding="utf-8"?>
<!DOCTYPE svg PUBLIC "-//W3C//DTD SVG 1.1//EN" "http://www.w3.org/Graphics/SVG/1.1/DTD/svg11.dtd">
<svg version="1.1" id="Layer_1" xmlns="http://www.w3.org/2000/svg" xmlns:xlink="http://www.w3.org/1999/xlink" x="0px" y="0px"
	 width="255.992px" height="256px" viewBox="0 0 255.992 256" enable-background="new 0 0 255.992 256" xml:space="preserve">
<g>
	<path fill-rule="evenodd" clip-rule="evenodd" fill="#05A2F1" d="M127.992,80.085c2.481-0.261,5.062,0.557,6.954,2.44l52.135,52.14
		c7.283,7.279,7.568,20.662-7.809,20.662h-19.693v12.479H96.413v-12.479H76.715c-15.38,0-15.087-13.379-7.802-20.662l52.129-52.14
		C122.935,80.634,125.51,79.824,127.992,80.085L127.992,80.085z M159.579,180.818v13.326H96.413v-13.326H159.579L159.579,180.818z
		 M159.579,207.165v14.038H96.413v-14.038H159.579L159.579,207.165z M159.579,234.224v15.673c0,3.341-2.763,6.104-6.104,6.104
		h-50.963c-3.335,0-6.1-2.746-6.1-6.104v-15.673H159.579z"/>
	<path fill-rule="evenodd" clip-rule="evenodd" fill="#B4B4B4" d="M55.563,191.577c7.489,0,14.971-0.069,22.454-0.114v-19.604H65.18
		c-7.442,0-14.05,0.651-21.189-1.773c-14.188-4.813-24.412-18.253-24.412-34.073c0-9.749,3.886-18.595,10.177-25.072
		c9.171-9.452,23.481-13.465,36.195-9.396c-6.936-9.269-8.996-21.284-5.656-32.21c4.515-14.709,18.208-25.418,34.407-25.418
		c8.26,0,16.829,2.652,22.963,8.28c4.919-18.904,21.643-32.608,41.768-32.608c17.496,0,32.56,10.445,39.289,25.438
		c5.896,13.139,4.81,28.828-3.112,40.934c22.509,1.086,40.799,19.962,40.799,42.996c0,22.005-16.532,40.164-37.853,42.724
		l-0.054,0.179h-20.535v19.584c5.131,0,10.266,0,15.4,0c4.562,0,8.476-0.256,13.077-1.241c28.308-6.01,49.548-31.155,49.548-61.245
		c0-24.576-14.164-45.849-34.765-56.106c0.541-3.324,0.825-6.733,0.825-10.221C222.053,28.047,194.01,0,159.433,0
		c-20.942,0-39.477,10.294-50.849,26.082c-4.436-1.144-9.09-1.746-13.881-1.746c-30.68,0-55.571,24.877-55.571,55.565
		c0,1.001,0.031,1.998,0.082,2.99C16.512,89.878,0,111.017,0,136.012c0,26.854,19.067,49.267,44.394,54.442
		C48.074,191.198,51.814,191.577,55.563,191.577z"/>
</g>
</svg>
